# xmcd
# 
# Track frame offsets:
#     150
#     13197
#     31650
#     49660
#     69263
#     87636
#     105302
#     123653
#     142442
#     162097
#     180373
#     184205
#     206088
#     226845
#     246738
#     272007
# 
# Disc length: 3867
# 
# Revision: 1
# Processed by: cddbd v1.5.2PL0 Copyright (c) Steve Scherf et al.
# Submitted via: fre:ac v1.0.17
# 
DISCID=e30f1910
DTITLE=Trip Lee - Between Two Worlds
DYEAR=2010
DGENRE=Christian Rap
TTITLE0=Real life music
TTITLE1=Snitch
TTITLE2=Invade ft J. Paul
TTITLE3=Prognosis
TTITLE4=No worries
TTITLE5=Covenant eyes ft Pro
TTITLE6=Life 101 ft Chris Lee
TTITLE7=I love music ft Shobaraka
TTITLE8=Limitations ft Leah Smith
TTITLE9=Yours to own ft Jimmy Needham
TTITLE10=Apathy (Interlude)
TTITLE11=Twisted ft Lecrae, Pro &Thi'sl
TTITLE12=Bear with You ftTedashii
TTITLE13=Show's over  ft Mitch Parks
TTITLE14=The invasion (Hero) ft Jai
TTITLE15=My Lord (Bonus Track)
EXTD=
EXTT0=
EXTT1=
EXTT2=
EXTT3=
EXTT4=
EXTT5=
EXTT6=
EXTT7=
EXTT8=
EXTT9=
EXTT10=
EXTT11=
EXTT12=
EXTT13=
EXTT14=
EXTT15=
PLAYORDER=
